<svg xmlns="http://www.w3.org/2000/svg">
<style>
@media ( prefers-color-scheme: dark ) {
	@keyframes c { 50% { filter: brightness(400%) } }
}
@media print, ( prefers-color-scheme: light ) {
	@keyframes c { 50% { filter: brightness(10%) } }
}</style>
<defs><linearGradient id="c" x1="0" x2="753.552" y1="56.88" y2="56.88" gradientUnits="userSpaceOnUse">
	<stop id="c0" offset="0" stop-color="#252525"/>
	<stop id="c1" offset=".47" stop-color="#fff"/>
	<stop id="c2" offset="1" stop-color="#252525"/>
</linearGradient></defs>
<path fill="url(#c)" style="animation:c 10s ease-in-out infinite" aria-label="hello world" d="M0 111.744V3.456L21.456 0v36.288q2.16-.72 5.472-1.296 3.456-.72 6.624-.72 9.216 0 15.264 2.592 6.192 2.448 9.792 7.056 3.744 4.608 5.184 10.944 1.584 6.336 1.584 14.112v42.768H43.92V71.568q0-10.368-2.736-14.688-2.592-4.32-9.792-4.32-2.88 0-5.472.576-2.448.432-4.464 1.008v57.6Zm81.216-37.296q0-10.08 3.024-17.568 3.168-7.632 8.208-12.672 5.04-5.04 11.52-7.632 6.624-2.592 13.536-2.592 16.128 0 25.488 9.936 9.36 9.792 9.36 28.944 0 1.872-.144 4.176-.144 2.16-.288 3.888h-48.672q.72 6.624 6.192 10.512 5.472 3.888 14.688 3.888 5.904 0 11.52-1.008 5.76-1.152 9.36-2.736l2.88 17.424q-1.728.864-4.608 1.728t-6.48 1.44q-3.456.72-7.488 1.152-4.032.432-8.064.432-10.224 0-17.856-3.024-7.488-3.024-12.528-8.208Q85.968 97.2 83.52 90q-2.304-7.2-2.304-15.552zm50.4-8.208q-.144-2.736-1.008-5.328-.72-2.592-2.448-4.608-1.584-2.016-4.176-3.312-2.448-1.296-6.192-1.296-3.6 0-6.192 1.296-2.592 1.152-4.32 3.168-1.728 2.016-2.736 4.752-.864 2.592-1.296 5.328zm67.536 46.944q-9.36-.144-15.264-2.016-5.76-1.872-9.216-5.184-3.312-3.456-4.608-8.208-1.152-4.896-1.152-10.944V3.456L190.368 0v82.512q0 2.88.432 5.184.432 2.304 1.584 3.888 1.296 1.584 3.6 2.592 2.304 1.008 6.192 1.296zm45.504 0q-9.36-.144-15.264-2.016-5.76-1.872-9.216-5.184-3.312-3.456-4.608-8.208-1.152-4.896-1.152-10.944V3.456L235.872 0v82.512q0 2.88.432 5.184.432 2.304 1.584 3.888 1.296 1.584 3.6 2.592 2.304 1.008 6.192 1.296zm86.112-39.456q0 8.928-2.592 16.416-2.592 7.344-7.488 12.672-4.896 5.184-11.808 8.064-6.768 2.88-15.264 2.88-8.352 0-15.264-2.88-6.768-2.88-11.664-8.064-4.896-5.328-7.632-12.672-2.736-7.488-2.736-16.416t2.736-16.272q2.88-7.344 7.776-12.528 5.04-5.184 11.808-8.064 6.912-2.88 14.976-2.88 8.208 0 14.976 2.88 6.912 2.88 11.808 8.064t7.632 12.528q2.736 7.344 2.736 16.272zm-21.888 0q0-9.936-4.032-15.552-3.888-5.76-11.232-5.76-7.344 0-11.376 5.76-4.032 5.616-4.032 15.552t4.032 15.84q4.032 5.76 11.376 5.76 7.344 0 11.232-5.76 4.032-5.904 4.032-15.84zm119.088-5.472Q425.088 79.2 421.776 90q-3.168 10.8-6.768 21.744h-16.704q-2.592-6.048-5.616-14.4-3.024-8.352-6.336-18.144-3.168-9.936-6.624-20.88-3.312-11.088-6.48-22.32h22.608q1.152 5.184 2.448 11.376 1.44 6.048 2.88 12.528 1.584 6.48 3.168 13.104 1.728 6.48 3.456 12.528 1.872-6.336 3.6-12.96 1.872-6.624 3.456-12.96 1.728-6.48 3.168-12.384 1.584-6.048 2.736-11.232h15.552q1.152 5.184 2.592 11.232 1.44 5.904 3.024 12.384 1.584 6.336 3.312 12.96 1.728 6.624 3.6 12.96 1.728-6.048 3.456-12.528 1.728-6.624 3.168-13.104 1.584-6.48 2.88-12.528 1.44-6.192 2.592-11.376h22.32q-3.168 11.232-6.624 22.32-3.312 10.944-6.624 20.88-3.168 9.792-6.336 18.144-3.024 8.352-5.616 14.4H441.36Q437.76 100.8 434.304 90q-3.456-10.8-6.336-21.744zm135.936 5.472q0 8.928-2.592 16.416-2.592 7.344-7.488 12.672-4.896 5.184-11.808 8.064-6.768 2.88-15.264 2.88-8.352 0-15.264-2.88-6.768-2.88-11.664-8.064-4.896-5.328-7.632-12.672-2.736-7.488-2.736-16.416t2.736-16.272q2.88-7.344 7.776-12.528 5.04-5.184 11.808-8.064 6.912-2.88 14.976-2.88 8.208 0 14.976 2.88 6.912 2.88 11.808 8.064t7.632 12.528q2.736 7.344 2.736 16.272zm-21.888 0q0-9.936-4.032-15.552-3.888-5.76-11.232-5.76-7.344 0-11.376 5.76-4.032 5.616-4.032 15.552t4.032 15.84q4.032 5.76 11.376 5.76 7.344 0 11.232-5.76 4.032-5.904 4.032-15.84zm84.096-18.72q-2.88-.72-6.768-1.44-3.888-.864-8.352-.864-2.016 0-4.896.432-2.736.288-4.176.72v57.888h-21.456V40.032q5.76-2.016 13.536-3.744 7.92-1.872 17.568-1.872 1.728 0 4.176.288 2.448.144 4.896.576 2.448.288 4.896.864 2.448.432 4.176 1.152zm45.36 58.176q-9.36-.144-15.264-2.016-5.76-1.872-9.216-5.184-3.312-3.456-4.608-8.208-1.152-4.896-1.152-10.944V3.456L662.688 0v82.512q0 2.88.432 5.184.432 2.304 1.584 3.888 1.296 1.584 3.6 2.592 2.304 1.008 6.192 1.296zm33.552-39.888q0 9.936 4.464 15.984t13.248 6.048q2.88 0 5.328-.144 2.448-.288 4.032-.576V55.584q-2.016-1.296-5.328-2.16-3.168-.864-6.48-.864-15.264 0-15.264 20.736zm48.528 36q-2.88.864-6.624 1.728-3.744.72-7.92 1.296-4.032.576-8.352.864-4.176.432-8.064.432-9.36 0-16.704-2.736-7.344-2.736-12.384-7.776-5.04-5.184-7.776-12.384-2.592-7.344-2.592-16.416 0-9.216 2.304-16.56 2.304-7.488 6.624-12.672t10.512-7.92q6.336-2.736 14.4-2.736 4.464 0 7.92.864 3.6.864 7.2 2.448V3.456L753.552 0Z"/>
</svg>
